HIERARCHY
ROOT Hips
{
	OFFSET -0.001795 -0.223333 0.028219
	CHANNELS 6 Xposition Yposition Zposition Zrotation Yrotation Xrotation 
	JOINT LeftUpLeg
	{
		OFFSET 0.069520 -0.091406 -0.006815
		CHANNELS 3 Zrotation Yrotation Xrotation
		JOINT LeftLeg
		{
			OFFSET 0.034277 -0.375199 -0.004496
			CHANNELS 3 Zrotation Yrotation Xrotation
			JOINT LeftFoot
			{
				OFFSET -0.013596 -0.397961 -0.043693
				CHANNELS 3 Zrotation Yrotation Xrotation
				JOINT LeftToe
				{
					OFFSET 0.026358 -0.055791 0.119288
					CHANNELS 3 Zrotation Yrotation Xrotation
					End Site
					{
						OFFSET 0.000000 0.000000 0.000000
					}
				}
			}
		}
	}
	JOINT RightUpLeg
	{
		OFFSET -0.067670 -0.090522 -0.004320
		CHANNELS 3 Zrotation Yrotation Xrotation
		JOINT RightLeg
		{
			OFFSET -0.038290 -0.382569 -0.008850
			CHANNELS 3 Zrotation Yrotation Xrotation
			JOINT RightFoot
			{
				OFFSET 0.015774 -0.398415 -0.042312
				CHANNELS 3 Zrotation Yrotation Xrotation
				JOINT RightToe
				{
					OFFSET -0.025372 -0.048144 0.123348
					CHANNELS 3 Zrotation Yrotation Xrotation
					End Site
					{
						OFFSET 0.000000 0.000000 0.000000
					}
				}
			}
		}
	}
	JOINT Spine
	{
		OFFSET -0.002533 0.108963 -0.026696
		CHANNELS 3 Zrotation Yrotation Xrotation
		JOINT Spine1
		{
			OFFSET 0.005487 0.135180 0.001092
			CHANNELS 3 Zrotation Yrotation Xrotation
			JOINT Spine2
			{
				OFFSET 0.001457 0.052922 0.025425
				CHANNELS 3 Zrotation Yrotation Xrotation
				JOINT Neck
				{
					OFFSET -0.002778 0.213870 -0.042857
					CHANNELS 3 Zrotation Yrotation Xrotation
					JOINT Head
					{
						OFFSET 0.005152 0.064970 0.051349
						CHANNELS 3 Zrotation Yrotation Xrotation
						End Site
						{
							OFFSET 0.000000 0.000000 0.000000
						}
					}
				}
				JOINT LeftShoulder
				{
					OFFSET 0.078845 0.121749 -0.034090
					CHANNELS 3 Zrotation Yrotation Xrotation
					JOINT LeftArm
					{
						OFFSET 0.090977 0.030469 -0.008868
						CHANNELS 3 Zrotation Yrotation Xrotation
						JOINT LeftForeArm
						{
							OFFSET 0.259612 -0.012772 -0.027456
							CHANNELS 3 Zrotation Yrotation Xrotation
							JOINT LeftHand
							{
								OFFSET 0.249234 0.008986 -0.001171
								CHANNELS 3 Zrotation Yrotation Xrotation
								End Site
								{
									OFFSET 0.000000 0.000000 0.000000
								}
							}
						}
					}
				}
				JOINT RightShoulder
				{
					OFFSET -0.081759 0.118833 -0.038615
					CHANNELS 3 Zrotation Yrotation Xrotation
					JOINT RightArm
					{
						OFFSET -0.096012 0.032551 -0.009143
						CHANNELS 3 Zrotation Yrotation Xrotation
						JOINT RightForeArm
						{
							OFFSET -0.253742 -0.013329 -0.021401
							CHANNELS 3 Zrotation Yrotation Xrotation
							JOINT RightHand
							{
								OFFSET -0.255298 0.007772 -0.005559
								CHANNELS 3 Zrotation Yrotation Xrotation
								End Site
								{
									OFFSET 0.000000 0.000000 0.000000
								}
							}
						}
					}
				}
			}
		}
	}
}
MOTION
Frames: 12
Frame Time: 0.050000
-0.250669 0.939143 2.843569 -0.427866 -12.500760 -5.715531 -2.650533 -1.898846 -19.143372 3.016320 -0.724017 7.423125 -3.471234 1.047000 23.861590 0.000000 0.000000 0.000000 0.617275 -1.042502 13.779572 -3.839620 5.698553 40.170294 7.680024 1.434320 23.922660 0.000000 0.000000 0.000000 4.194556 -0.261785 4.263858 -4.214054 2.282851 3.210547 -0.110388 17.424605 2.600933 9.411702 -3.883969 -14.021276 0.000000 0.000000 0.000000 -21.586381 4.519462 -7.671307 -40.012843 18.246527 -9.581069 -112.244628 -51.125072 69.938165 0.000000 0.000000 0.000000 15.122975 -2.877416 -0.856615 54.544911 8.474871 -1.363753 106.681528 57.902751 82.892010 0.000000 0.000000 0.000000 
-0.250955 0.926390 2.924354 0.484248 -12.918571 -7.902724 -4.143923 -1.837864 -15.266986 1.525107 -0.505227 13.226091 -0.720764 2.352472 13.897570 0.000000 0.000000 0.000000 -0.474795 -0.577091 8.539663 -2.121787 7.213947 51.288920 3.996558 -1.197230 17.346908 0.000000 0.000000 0.000000 3.673937 -0.352902 6.316867 -3.148825 1.769237 4.001066 -2.789364 14.725148 2.177707 8.744194 -3.312481 -15.712016 0.000000 0.000000 0.000000 -23.213420 2.085399 -6.225271 -40.545317 15.870107 -8.988017 -102.453389 -56.692956 67.832539 0.000000 0.000000 0.000000 18.777529 -2.156438 -0.904070 52.394728 4.520383 -3.375603 103.093045 55.792908 74.972242 0.000000 0.000000 0.000000 
-0.251394 0.923214 2.993352 0.535409 -13.217487 -9.426841 -5.099541 -1.587059 -11.438758 0.973472 -0.324262 17.452302 0.584424 2.887695 6.562987 0.000000 0.000000 0.000000 0.518289 -0.222479 2.621170 -1.742066 7.713325 53.852635 -1.286368 -5.714448 5.089731 0.000000 0.000000 0.000000 3.458837 -0.440103 8.431475 -3.308576 1.807130 3.190919 -2.940520 11.144009 3.570822 8.096200 -3.241273 -16.124603 0.000000 0.000000 0.000000 -26.298128 -0.384769 -4.269878 -38.974612 9.829181 -7.001156 -91.118718 -62.074907 64.786078 0.000000 0.000000 0.000000 22.276884 -2.017196 -1.849074 49.378437 -0.784937 -5.455545 92.858912 54.374328 61.321161 0.000000 0.000000 0.000000 
-0.252061 0.935495 3.052950 0.058101 -13.839223 -9.786070 -5.760533 -1.045986 -6.446602 1.447691 -0.443168 16.516079 0.883614 3.182792 5.461645 0.000000 0.000000 0.000000 2.374660 0.396009 -3.742582 -2.852843 7.258631 47.920608 -3.234888 -2.899783 -8.752125 0.000000 0.000000 0.000000 3.643427 -0.492523 9.508351 -2.482883 1.342911 2.835080 -3.089907 7.634478 3.987741 6.132456 -2.563071 -15.131862 0.000000 0.000000 0.000000 -26.766078 -1.661829 -2.251276 -40.816459 4.610667 -6.122248 -78.123801 -64.406211 57.033312 0.000000 0.000000 0.000000 22.335636 -2.816256 -3.354256 46.731410 -7.501996 -7.414077 82.170575 52.163818 48.397158 0.000000 0.000000 0.000000 
-0.253405 0.949581 3.106274 -0.757203 -13.868119 -9.585620 -6.426460 -0.473480 -2.157793 2.849751 -0.829440 14.940540 0.636732 2.950137 6.549966 0.000000 0.000000 0.000000 4.325613 0.931044 -7.234050 -5.138661 5.746611 35.640399 -0.986475 6.029788 -10.130816 0.000000 0.000000 0.000000 4.356075 -0.531583 9.466868 -1.616108 0.883445 2.916862 -2.863956 3.642906 4.104058 4.499683 -2.054310 -14.081587 0.000000 0.000000 0.000000 -27.232567 -0.727839 -1.468149 -42.272010 -0.149913 -5.217050 -71.376865 -65.523345 53.809117 0.000000 0.000000 0.000000 20.969339 -4.222212 -4.982154 44.137789 -13.924849 -8.938245 71.223531 48.471554 36.046683 0.000000 0.000000 0.000000 
-0.255955 0.956348 3.155818 -1.160627 -13.142578 -9.088728 -6.859631 0.074332 1.300310 3.565156 -1.008033 13.237125 0.079143 2.139661 7.329331 0.000000 0.000000 0.000000 4.634406 1.171612 -8.692907 -4.982171 3.122776 21.992317 4.937806 10.693638 2.150022 0.000000 0.000000 0.000000 5.194836 -0.578838 9.328873 -1.172141 0.669782 3.584778 -3.024854 0.946747 3.029791 3.664626 -1.798016 -12.959100 0.000000 0.000000 0.000000 -25.773091 -1.363143 -0.302819 -43.898371 -2.664389 -4.651271 -69.693978 -65.966064 53.552934 0.000000 0.000000 0.000000 20.828814 -6.032526 -6.486468 41.425658 -19.156700 -9.822409 61.874910 46.491871 28.557173 0.000000 0.000000 0.000000 
-0.260001 0.955090 3.201918 -1.223436 -12.322117 -8.754336 -6.369846 0.439705 3.496100 2.792726 -0.848149 13.698416 -0.902192 0.190782 6.647657 0.000000 0.000000 0.000000 4.848785 1.047734 -7.800853 -3.840705 1.805935 14.873056 7.940668 7.169631 14.214537 0.000000 0.000000 0.000000 5.617131 -0.610665 9.288144 -1.328984 0.699347 2.387952 -3.281160 -0.870005 3.466925 3.697759 -2.037579 -12.029954 0.000000 0.000000 0.000000 -25.843549 -1.406165 0.230367 -43.540563 -3.583964 -4.482479 -73.141223 -65.734215 56.807192 0.000000 0.000000 0.000000 21.129867 -7.557310 -7.718142 39.067037 -22.642298 -10.218593 56.174823 45.265681 24.566685 0.000000 0.000000 0.000000 
-0.264819 0.952568 3.243764 -1.383266 -11.275129 -8.202738 -6.302439 0.590322 4.359158 2.793390 -0.911907 15.570065 -1.340755 -0.572283 6.591695 0.000000 0.000000 0.000000 5.385760 0.915446 -6.761705 -3.799851 1.675385 13.999994 7.196473 2.300970 19.995128 0.000000 0.000000 0.000000 6.370299 -0.641270 8.939080 -2.567987 1.390212 3.279611 -2.429408 -1.909547 1.487885 3.610428 -1.999192 -11.514100 0.000000 0.000000 0.000000 -25.691353 -1.761381 0.535856 -43.785766 -3.887802 -4.263505 -66.067545 -63.283442 48.877846 0.000000 0.000000 0.000000 21.181730 -8.656939 -8.487060 38.965795 -24.139866 -10.507478 50.024166 44.708610 21.190957 0.000000 0.000000 0.000000 
-0.269310 0.951149 3.279642 -1.781540 -9.490917 -7.718247 -5.419178 0.505913 3.926650 2.193443 -0.872876 19.200685 -2.238940 -1.709703 7.662368 0.000000 0.000000 0.000000 5.721526 0.662730 -4.991397 -3.886991 1.661184 13.996217 5.851669 0.994469 18.849004 0.000000 0.000000 0.000000 6.522536 -0.630166 8.386564 -1.922079 1.026962 3.351371 -2.898088 -2.168792 1.400128 3.133203 -1.658042 -11.210563 0.000000 0.000000 0.000000 -25.438021 -1.496540 0.141177 -44.182050 -3.060350 -4.495353 -56.104104 -60.208246 38.794617 0.000000 0.000000 0.000000 23.260610 -8.369198 -8.778532 39.427567 -22.821037 -10.166314 41.994780 44.451900 17.624387 0.000000 0.000000 0.000000 
-0.272481 0.952882 3.309068 -2.511784 -8.871281 -5.923766 -3.192627 0.188725 1.791375 0.959607 -0.545250 22.968785 -4.901324 -5.630240 9.608479 0.000000 0.000000 0.000000 5.639254 0.464953 -3.827193 -2.793031 1.292759 12.869137 5.604527 1.914727 16.552433 0.000000 0.000000 0.000000 7.068063 -0.613402 7.419258 -1.410502 0.769458 4.129986 -3.197312 -0.667002 -0.625516 3.620076 -1.842089 -10.433490 0.000000 0.000000 0.000000 -25.562018 -0.939670 -0.960828 -43.947600 0.566019 -5.336393 -47.064229 -56.117671 29.393298 0.000000 0.000000 0.000000 23.246812 -6.753604 -7.387760 42.602828 -19.263603 -9.838282 32.952008 43.400792 13.662436 0.000000 0.000000 0.000000 
-0.273631 0.955635 3.333509 -2.326753 -8.164517 -5.133024 -2.234334 0.051837 0.630146 0.498363 -0.440128 21.965294 -0.231493 -0.014073 1.265123 0.000000 0.000000 0.000000 4.578441 0.142486 -1.697063 -1.777735 0.946614 11.426747 5.287430 2.874030 14.019801 0.000000 0.000000 0.000000 6.669851 -0.612553 7.353014 -1.971366 1.030574 3.081635 -2.382143 2.127293 -0.094476 4.543579 -2.014893 -12.609441 0.000000 0.000000 0.000000 -25.327720 -2.000027 -1.195873 -44.525619 2.600487 -5.899749 -36.835088 -50.298001 19.922367 0.000000 0.000000 0.000000 23.514774 -7.222473 -6.922613 44.566818 -13.623180 -8.579688 29.326037 43.217058 12.586989 0.000000 0.000000 0.000000 
-0.272914 0.957442 3.354972 -2.186333 -7.525400 -4.687042 -1.307644 0.048924 0.538258 0.539131 -0.459695 17.172368 2.040816 3.629456 -2.657387 0.000000 0.000000 0.000000 4.103411 -0.185816 0.807624 -1.407527 0.705260 9.234576 4.476928 2.297635 12.481972 0.000000 0.000000 0.000000 6.463078 -0.673899 8.022463 -2.036213 1.004750 0.898463 -2.148490 3.640071 1.246741 5.347544 -2.400653 -12.848370 0.000000 0.000000 0.000000 -24.841961 -0.844858 -2.303366 -43.974541 5.693439 -6.845262 -30.055304 -45.323010 14.435340 0.000000 0.000000 0.000000 23.404092 -6.040384 -5.730587 47.692338 -7.694013 -7.276054 24.585646 45.696873 11.733960 0.000000 0.000000 0.000000 
